<svg id="svg" version="1.1" xmlns="http://www.w3.org/2000/svg" xmlns:xlink="http://www.w3.org/1999/xlink" width="400" height="400" viewBox="0, 0, 400,400"><g id="svgg"><path id="path0" d="M24.000 5.600 C 24.000 5.820,23.100 6.000,22.000 6.000 C 20.900 6.000,20.000 6.180,20.000 6.400 C 20.000 6.620,19.500 6.800,18.888 6.800 C 18.235 6.800,17.539 7.130,17.200 7.600 C 16.883 8.040,16.303 8.400,15.912 8.400 C 15.520 8.400,15.200 8.580,15.200 8.800 C 15.200 9.020,15.001 9.200,14.758 9.200 C 13.921 9.200,11.261 11.620,10.131 13.408 C 9.509 14.393,8.865 15.199,8.700 15.199 C 8.535 15.200,8.400 15.560,8.400 16.000 C 8.400 16.440,8.220 16.800,8.000 16.800 C 7.780 16.800,7.600 17.160,7.600 17.600 C 7.600 18.040,7.420 18.400,7.200 18.400 C 6.980 18.400,6.800 18.839,6.800 19.376 C 6.800 19.913,6.620 20.464,6.400 20.600 C 5.845 20.943,5.845 370.257,6.400 370.600 C 6.620 370.736,6.804 371.242,6.809 371.724 C 6.814 372.206,7.170 373.050,7.600 373.600 C 8.030 374.150,8.386 374.791,8.391 375.025 C 8.396 375.258,8.720 375.798,9.111 376.225 C 9.502 376.651,10.248 377.605,10.769 378.344 C 13.317 381.957,19.045 384.960,24.561 385.575 C 30.705 386.261,375.014 386.117,378.220 385.428 C 383.850 384.219,392.400 377.848,392.400 374.863 C 392.400 374.608,392.535 374.399,392.700 374.397 C 393.101 374.393,394.000 372.419,394.000 371.544 C 394.000 371.161,394.180 370.736,394.400 370.600 C 394.955 370.257,394.955 20.943,394.400 20.600 C 394.180 20.464,394.000 19.913,394.000 19.376 C 394.000 18.839,393.820 18.400,393.600 18.400 C 393.380 18.400,393.200 18.040,393.200 17.600 C 393.200 17.160,393.020 16.800,392.800 16.800 C 392.580 16.800,392.400 16.440,392.400 16.000 C 392.400 15.560,392.220 15.200,392.000 15.200 C 391.780 15.200,391.600 14.950,391.600 14.646 C 391.600 13.858,387.018 9.200,386.244 9.200 C 385.890 9.200,385.600 9.020,385.600 8.800 C 385.600 8.580,385.280 8.400,384.888 8.400 C 384.497 8.400,383.917 8.040,383.600 7.600 C 383.261 7.130,382.565 6.800,381.912 6.800 C 381.300 6.800,380.800 6.620,380.800 6.400 C 380.800 6.180,379.900 6.000,378.800 6.000 C 377.700 6.000,376.800 5.820,376.800 5.600 C 376.800 5.334,317.733 5.200,200.400 5.200 C 83.067 5.200,24.000 5.334,24.000 5.600 M368.800 24.116 C 372.882 25.740,376.253 29.208,377.437 33.000 C 378.282 35.708,378.856 355.011,378.023 359.244 C 376.898 364.965,373.338 369.089,368.249 370.569 C 365.523 371.361,36.834 371.556,34.360 370.766 C 30.138 369.419,27.096 366.898,25.313 363.267 L 24.200 361.000 24.080 198.400 C 23.989 75.309,24.073 35.306,24.428 33.767 C 25.492 29.144,29.939 24.881,34.800 23.825 C 39.308 22.846,366.323 23.131,368.800 24.116 M125.532 89.563 C 121.212 89.947,121.560 91.071,127.264 95.157 C 127.999 95.683,129.753 97.891,131.163 100.064 C 134.240 104.806,136.000 104.259,136.000 98.561 C 136.000 95.204,131.047 88.933,128.656 89.263 C 128.405 89.298,127.000 89.433,125.532 89.563 M97.721 106.295 C 95.960 106.451,95.942 106.494,96.797 108.600 C 96.976 109.040,97.486 110.390,97.930 111.600 C 99.870 116.881,101.001 119.604,102.498 122.600 C 104.500 126.607,108.005 132.475,109.706 134.668 C 110.418 135.585,111.786 137.339,112.746 138.565 C 114.862 141.267,115.435 144.749,114.087 146.721 C 113.310 147.858,112.746 149.569,111.953 153.200 C 111.689 154.410,111.026 157.110,110.481 159.200 C 107.755 169.654,107.001 181.624,108.730 187.000 C 109.155 188.320,109.896 190.840,110.376 192.600 C 112.316 199.701,115.424 207.645,116.595 208.494 C 118.341 209.760,119.892 208.099,118.833 206.095 C 117.684 203.919,115.928 195.670,115.219 189.123 C 114.115 178.917,115.514 166.700,118.784 158.000 C 124.041 144.011,124.041 142.281,118.790 136.617 C 113.332 130.730,109.742 123.907,105.943 112.200 C 104.414 107.487,104.026 106.936,102.074 106.704 C 101.263 106.608,100.330 106.443,100.000 106.337 C 99.670 106.232,98.644 106.212,97.721 106.295 M207.529 121.870 C 206.992 122.012,207.684 123.307,210.972 128.324 C 217.381 138.099,222.800 148.234,222.800 150.444 C 222.800 151.135,239.611 184.072,243.909 191.800 C 249.372 201.626,251.802 203.883,259.400 206.195 C 260.720 206.597,261.971 207.077,262.180 207.263 C 262.389 207.448,262.938 207.600,263.400 207.600 C 263.862 207.600,264.451 207.811,264.710 208.070 C 264.993 208.353,266.971 208.601,269.690 208.694 L 274.200 208.848 272.036 207.624 C 270.846 206.951,269.762 206.400,269.628 206.400 C 269.494 206.400,267.588 205.527,265.392 204.461 C 263.197 203.394,260.465 202.213,259.323 201.836 C 255.397 200.541,253.885 198.545,249.602 189.000 C 249.109 187.900,247.084 183.670,245.103 179.600 C 243.123 175.530,240.963 171.030,240.305 169.600 C 235.669 159.531,233.750 155.077,230.983 147.955 C 227.039 137.808,218.347 123.200,216.252 123.200 C 215.919 123.200,215.536 123.020,215.400 122.800 C 215.264 122.580,214.454 122.400,213.600 122.400 C 212.746 122.400,211.936 122.220,211.800 122.000 C 211.557 121.606,208.840 121.524,207.529 121.870 M139.273 184.726 C 133.196 192.816,130.456 202.659,133.592 205.136 C 134.314 205.706,134.877 206.606,135.033 207.436 L 135.289 208.800 138.245 208.800 L 141.200 208.800 141.200 207.244 C 141.200 206.388,140.844 204.903,140.409 203.944 C 139.355 201.622,139.400 200.699,140.636 199.231 C 142.806 196.651,146.259 198.748,149.804 204.800 C 151.914 208.402,152.318 208.800,153.862 208.800 C 155.557 208.800,155.593 209.012,152.998 203.699 C 151.789 201.224,150.800 199.113,150.800 199.009 C 150.800 198.905,150.260 197.641,149.600 196.200 C 148.940 194.759,148.400 193.493,148.400 193.386 C 148.400 193.279,148.022 192.338,147.560 191.296 C 147.098 190.253,146.582 189.040,146.414 188.600 C 146.245 188.160,145.915 187.350,145.681 186.800 C 145.447 186.250,145.050 185.080,144.798 184.200 C 143.404 179.322,143.328 179.329,139.273 184.726 M46.634 289.326 C 45.844 289.903,47.829 294.629,49.610 296.410 C 50.701 297.501,53.200 297.512,53.200 296.425 C 53.200 295.300,50.904 289.513,50.307 289.134 C 49.520 288.634,47.431 288.743,46.634 289.326 M59.152 289.477 C 58.260 290.528,56.400 295.089,56.400 296.226 C 56.400 297.108,56.563 297.200,58.136 297.200 C 59.992 297.200,60.609 296.457,62.882 291.485 L 63.574 289.970 62.569 289.588 C 60.414 288.769,59.771 288.748,59.152 289.477 M40.284 290.125 C 39.193 290.556,39.171 290.628,39.284 293.383 L 39.400 296.200 40.970 296.148 C 43.064 296.079,43.600 295.258,43.600 292.124 C 43.600 289.334,43.081 289.022,40.284 290.125 M66.199 290.404 C 65.923 291.272,66.310 295.207,66.739 295.902 C 67.256 296.738,69.861 296.940,70.157 296.167 C 71.010 293.945,70.910 290.923,69.962 290.258 C 68.606 289.309,66.521 289.390,66.199 290.404 M74.814 290.774 C 73.977 292.339,74.499 297.416,75.555 297.968 C 75.910 298.154,76.759 298.425,77.443 298.572 L 78.686 298.839 78.960 295.814 C 79.403 290.925,79.086 290.000,76.970 290.000 C 75.657 290.000,75.126 290.191,74.814 290.774 M91.990 291.026 C 90.617 294.637,91.825 298.892,94.173 298.719 L 95.800 298.600 96.022 296.200 C 96.145 294.880,96.167 292.945,96.071 291.900 L 95.898 290.000 94.139 290.000 C 92.619 290.000,92.327 290.139,91.990 291.026 M159.879 312.254 C 159.333 312.800,159.551 354.300,160.100 354.458 C 160.375 354.537,162.535 354.545,164.900 354.475 L 169.200 354.349 169.200 348.374 C 169.200 341.377,169.289 341.272,172.302 344.700 C 173.413 345.965,175.915 348.662,177.862 350.694 L 181.400 354.387 186.699 354.457 C 189.653 354.496,192.004 354.366,192.011 354.163 C 192.019 353.964,188.734 350.399,184.712 346.243 C 180.691 342.087,177.349 338.480,177.287 338.228 C 177.175 337.773,180.933 333.998,187.774 327.694 L 191.348 324.400 185.974 324.400 L 180.600 324.401 175.239 329.819 C 172.291 332.800,169.729 335.089,169.546 334.906 C 169.363 334.723,169.165 329.539,169.106 323.386 L 169.000 312.200 164.579 312.088 C 162.147 312.026,160.032 312.101,159.879 312.254 M195.067 312.267 C 194.529 312.804,194.759 354.302,195.300 354.458 C 195.575 354.537,197.735 354.545,200.100 354.475 L 204.400 354.349 204.400 352.574 C 204.400 350.498,204.870 350.346,206.244 351.980 C 209.799 356.204,218.133 356.381,222.592 352.327 C 231.018 344.668,228.730 327.561,218.818 324.106 C 217.197 323.541,211.755 323.425,211.432 323.948 C 211.314 324.140,210.669 324.406,210.000 324.540 C 209.331 324.674,207.916 325.595,206.855 326.588 C 204.335 328.944,204.400 329.119,204.400 319.933 L 204.400 312.000 199.867 312.000 C 197.373 312.000,195.213 312.120,195.067 312.267 M334.400 333.176 C 334.400 344.823,334.535 354.409,334.700 354.479 C 334.865 354.548,336.935 354.547,339.300 354.477 L 343.600 354.349 343.606 345.674 C 343.612 336.793,343.805 335.379,345.322 333.063 C 347.084 330.373,351.006 329.547,353.388 331.364 C 355.362 332.869,355.600 334.357,355.600 345.189 C 355.600 353.867,355.666 354.860,356.233 354.643 C 356.581 354.509,358.651 354.400,360.833 354.400 L 364.800 354.400 364.800 343.294 C 364.800 330.834,364.523 329.226,361.908 326.483 C 358.014 322.400,350.506 322.616,345.709 326.949 C 343.573 328.879,343.600 328.969,343.600 319.933 L 343.600 312.000 339.000 312.000 L 334.400 312.000 334.400 333.176 M39.154 314.300 C 39.052 314.962,39.236 316.282,39.640 317.800 C 40.187 319.853,40.637 321.699,41.200 324.200 C 41.628 326.099,41.909 327.255,42.779 330.700 C 42.987 331.525,43.907 335.440,44.823 339.400 C 47.393 350.508,48.311 354.078,48.670 354.350 C 48.852 354.488,51.580 354.510,54.733 354.400 L 60.465 354.200 63.933 343.900 C 66.700 335.680,67.541 333.601,68.100 333.600 C 68.535 333.600,68.800 333.905,68.800 334.405 C 68.800 334.848,68.974 335.523,69.186 335.905 C 69.398 336.287,70.125 338.310,70.800 340.400 C 71.475 342.490,72.202 344.513,72.414 344.895 C 72.626 345.277,72.800 345.941,72.800 346.371 C 72.800 346.801,72.980 347.264,73.200 347.400 C 73.420 347.536,73.600 348.076,73.600 348.600 C 73.600 349.124,73.744 349.642,73.921 349.751 C 74.097 349.860,74.492 350.867,74.797 351.989 C 75.533 354.690,75.351 354.629,81.994 354.400 L 87.788 354.200 88.072 352.800 C 88.228 352.030,88.528 350.680,88.739 349.800 C 88.949 348.920,89.328 347.300,89.580 346.200 C 89.833 345.100,90.220 343.480,90.441 342.600 C 90.663 341.720,91.004 340.280,91.200 339.400 C 91.396 338.520,91.756 336.990,92.000 336.000 C 92.244 335.010,92.604 333.480,92.800 332.600 C 92.996 331.720,93.337 330.280,93.559 329.400 C 93.780 328.520,94.167 326.900,94.420 325.800 C 94.672 324.700,95.032 323.170,95.220 322.400 C 95.407 321.630,95.747 320.190,95.975 319.200 C 96.202 318.210,96.550 316.734,96.748 315.920 C 97.224 313.959,97.321 314.000,92.221 314.000 L 87.775 314.000 87.271 315.900 C 86.995 316.945,86.595 318.353,86.384 319.028 C 86.173 319.704,86.000 320.641,86.000 321.110 C 86.000 321.579,85.837 322.376,85.638 322.881 C 85.439 323.387,84.694 326.320,83.982 329.400 C 80.963 342.467,80.308 344.594,79.798 343.000 C 79.657 342.560,79.375 341.887,79.171 341.505 C 78.967 341.123,78.800 340.484,78.800 340.085 C 78.800 339.686,78.652 339.189,78.472 338.980 C 78.292 338.771,77.718 337.250,77.198 335.600 C 76.677 333.950,76.138 332.420,76.000 332.200 C 75.862 331.980,75.145 329.955,74.407 327.700 L 73.064 323.600 68.028 323.600 L 62.992 323.600 61.124 329.100 C 57.839 338.772,56.320 342.991,56.000 343.336 C 55.582 343.786,54.774 341.086,53.025 333.400 C 51.491 326.656,50.982 324.579,50.373 322.572 C 50.168 321.896,50.000 321.009,50.000 320.600 C 50.000 320.191,49.832 319.304,49.627 318.628 C 49.422 317.953,49.033 316.635,48.763 315.700 L 48.272 314.000 43.736 314.000 C 41.241 314.000,39.179 314.135,39.154 314.300 M109.000 323.972 C 108.560 324.161,107.453 324.537,106.539 324.809 C 95.352 328.133,93.820 346.883,104.234 353.034 C 109.058 355.883,117.408 356.086,122.736 353.485 C 134.735 347.626,132.984 327.460,120.200 324.282 C 118.093 323.758,110.021 323.535,109.000 323.972 M151.432 323.948 C 151.314 324.140,150.691 324.402,150.048 324.530 C 149.380 324.664,148.030 325.628,146.893 326.782 C 144.427 329.287,144.400 329.285,144.400 326.600 L 144.400 324.400 139.800 324.400 L 135.200 324.400 135.200 339.376 C 135.200 347.613,135.335 354.409,135.500 354.479 C 135.665 354.548,137.735 354.547,140.100 354.477 L 144.400 354.349 144.400 345.986 C 144.400 332.339,147.130 329.116,156.700 331.466 C 157.589 331.684,157.600 331.635,157.600 327.643 L 157.600 323.600 154.624 323.600 C 152.987 323.600,151.550 323.757,151.432 323.948 M241.154 324.205 C 228.585 327.651,225.902 346.812,237.133 352.925 C 241.156 355.115,249.673 356.037,254.454 354.800 C 255.304 354.580,256.765 354.207,257.700 353.971 C 261.614 352.983,261.600 353.000,261.600 349.330 L 261.600 346.056 259.100 347.074 C 249.481 350.991,242.326 349.884,240.031 344.124 C 239.184 341.997,239.166 342.000,251.436 342.000 C 264.644 342.000,263.578 342.445,262.791 337.260 C 261.175 326.607,252.182 321.182,241.154 324.205 M282.580 324.565 C 281.469 325.071,279.915 326.050,279.127 326.742 C 277.194 328.439,276.800 328.348,276.800 326.200 L 276.800 324.400 272.000 324.400 L 267.200 324.400 267.200 339.376 C 267.200 347.613,267.335 354.412,267.500 354.485 C 267.665 354.558,269.780 354.524,272.200 354.409 L 276.600 354.200 276.831 345.000 C 277.105 334.057,277.518 332.681,281.074 330.850 C 284.004 329.341,288.328 331.488,288.453 334.513 C 288.483 335.221,288.618 340.019,288.753 345.177 L 289.000 354.553 293.397 354.443 C 298.822 354.307,298.386 355.141,298.394 344.877 C 298.404 330.445,297.328 326.839,292.304 324.488 C 289.667 323.253,285.389 323.287,282.580 324.565 M314.400 324.000 C 314.070 324.213,313.375 324.391,312.856 324.394 C 309.926 324.413,305.211 328.351,303.294 332.381 C 302.109 334.872,301.697 343.226,302.659 345.239 C 302.912 345.768,303.397 346.836,303.737 347.613 C 306.428 353.764,317.417 357.014,326.600 354.375 L 328.600 353.800 328.716 350.300 C 328.779 348.375,328.727 346.800,328.600 346.800 C 328.472 346.800,327.700 347.133,326.884 347.539 C 317.829 352.049,309.327 345.441,312.129 336.071 C 313.766 330.599,320.473 328.291,326.406 331.157 C 328.866 332.346,328.843 332.372,328.716 328.509 L 328.600 325.017 327.400 324.674 C 326.740 324.486,325.647 324.167,324.972 323.966 C 323.342 323.480,315.163 323.507,314.400 324.000 M250.686 330.662 C 252.175 331.770,253.321 333.931,253.132 335.271 C 253.002 336.186,252.917 336.202,247.400 336.315 C 240.292 336.461,239.828 336.359,240.157 334.714 C 241.070 330.152,246.956 327.887,250.686 330.662 M117.558 330.856 C 123.245 334.341,121.902 347.107,115.672 348.781 C 106.810 351.164,103.001 333.843,111.600 330.264 C 112.564 329.863,116.590 330.263,117.558 330.856 M214.815 331.211 C 219.328 334.424,219.056 345.655,214.406 348.075 C 209.040 350.868,204.400 346.745,204.400 339.183 C 204.400 331.746,209.781 327.626,214.815 331.211 " stroke="none" fill="#0c9cc1" fill-rule="evenodd"></path><path id="path1" d="M35.600 24.163 C 30.268 25.133,26.579 28.489,24.834 33.960 C 24.525 34.928,24.402 81.996,24.406 197.360 C 24.412 366.803,24.348 359.356,25.851 363.700 C 25.984 364.085,26.252 364.400,26.447 364.400 C 26.641 364.400,26.800 364.614,26.800 364.876 C 26.800 365.693,30.099 368.445,32.400 369.547 L 34.600 370.600 201.008 370.600 L 367.417 370.600 370.092 369.283 C 372.981 367.861,374.876 365.963,376.435 362.932 L 377.400 361.056 377.400 197.428 L 377.400 33.800 376.302 31.564 C 374.205 27.294,371.209 25.090,366.202 24.135 C 362.328 23.396,39.666 23.423,35.600 24.163 M93.000 45.588 C 99.596 47.484,99.869 47.588,106.149 50.570 C 111.785 53.247,116.251 55.895,119.000 58.191 C 122.377 61.010,123.427 61.600,125.062 61.597 C 127.689 61.591,136.518 62.443,138.200 62.865 C 139.080 63.086,140.475 63.431,141.300 63.633 C 142.125 63.835,143.565 64.195,144.500 64.433 C 145.435 64.671,146.920 65.049,147.800 65.272 C 148.680 65.495,149.713 65.840,150.095 66.039 C 150.477 66.238,151.064 66.400,151.399 66.400 C 151.938 66.400,153.557 67.042,156.795 68.540 C 161.674 70.797,176.436 80.518,184.221 86.600 C 185.911 87.920,187.889 89.450,188.617 90.000 C 193.386 93.604,205.908 106.169,210.542 112.000 C 222.748 127.358,227.841 135.722,233.195 149.200 C 234.550 152.610,236.095 156.345,236.629 157.500 C 237.163 158.655,238.030 160.545,238.556 161.700 C 240.845 166.728,242.369 169.934,246.491 178.400 C 248.902 183.350,251.792 189.290,252.913 191.600 C 255.410 196.743,257.046 198.851,259.075 199.537 C 260.915 200.160,261.556 200.422,264.400 201.720 C 265.610 202.273,267.455 203.101,268.500 203.562 C 273.326 205.690,274.391 206.183,277.200 207.591 C 282.477 210.235,294.169 218.393,302.728 225.402 C 304.339 226.721,306.319 228.306,307.128 228.924 C 310.129 231.215,312.739 234.076,317.435 240.221 C 319.963 243.529,319.503 245.294,315.800 246.488 C 310.476 248.204,303.627 249.589,297.600 250.169 C 295.386 250.382,291.522 251.228,286.680 252.561 C 285.405 252.913,284.010 253.200,283.580 253.200 C 281.119 253.200,285.451 257.101,293.066 261.740 C 300.453 266.240,301.866 267.220,306.968 271.385 C 309.844 273.732,314.675 278.555,317.200 281.600 C 318.190 282.793,320.398 285.252,322.107 287.063 C 329.361 294.752,328.975 302.083,321.665 295.432 C 316.399 290.641,307.577 284.599,301.800 281.827 C 290.766 276.533,288.270 275.204,284.308 272.517 C 281.948 270.916,279.698 269.343,279.308 269.021 C 278.919 268.699,277.406 267.482,275.947 266.318 C 272.169 263.303,267.555 257.637,265.916 254.000 C 263.388 248.394,263.519 248.889,264.199 247.491 C 265.189 245.454,273.072 242.018,280.000 240.604 C 280.770 240.446,282.120 240.149,283.000 239.942 C 285.804 239.283,290.837 238.731,296.503 238.462 C 303.187 238.144,303.201 238.106,297.967 234.644 C 295.675 233.128,290.869 229.843,287.287 227.344 C 283.705 224.845,280.703 222.800,280.616 222.800 C 280.530 222.800,279.141 221.934,277.529 220.875 C 275.918 219.816,273.520 218.539,272.200 218.036 C 270.880 217.533,269.440 216.978,269.000 216.801 C 268.560 216.625,267.570 216.264,266.800 216.000 C 266.030 215.736,265.040 215.366,264.600 215.178 C 264.160 214.990,262.000 214.262,259.800 213.561 C 248.258 209.883,246.581 208.829,243.117 203.077 C 240.910 199.411,236.000 189.998,236.000 189.431 C 236.000 189.292,235.351 187.787,234.557 186.089 C 233.764 184.390,232.705 182.100,232.204 181.000 C 231.704 179.900,230.437 177.200,229.389 175.000 C 222.476 160.486,221.754 158.906,220.437 155.400 C 219.942 154.080,219.370 152.687,219.168 152.305 C 218.966 151.923,218.800 151.411,218.800 151.166 C 218.800 148.893,207.869 130.653,202.520 124.000 C 202.254 123.670,201.171 122.304,200.111 120.965 C 192.622 111.496,182.712 101.905,172.399 94.146 C 169.685 92.104,160.528 86.000,160.179 86.000 C 160.038 86.000,159.446 85.666,158.862 85.258 C 156.944 83.918,150.193 80.539,145.957 78.799 C 139.057 75.965,137.997 75.711,130.800 75.171 C 127.830 74.948,123.690 74.634,121.600 74.474 C 118.207 74.213,115.606 73.435,114.800 72.442 C 114.690 72.306,113.941 71.704,113.135 71.104 C 112.329 70.503,111.429 69.774,111.135 69.484 C 109.183 67.557,99.985 62.507,93.627 59.874 C 83.896 55.843,79.039 57.705,82.071 64.304 C 83.082 66.506,86.467 71.746,87.817 73.200 C 90.951 76.575,98.641 87.947,100.425 91.844 C 102.317 95.976,102.967 97.595,103.623 99.800 C 103.884 100.680,104.256 101.713,104.449 102.095 C 104.642 102.477,104.800 103.116,104.800 103.515 C 104.800 103.914,104.949 104.411,105.130 104.620 C 105.312 104.829,105.700 105.810,105.991 106.800 C 110.289 121.382,114.132 129.277,120.010 135.600 C 125.712 141.733,125.710 145.408,119.999 159.400 C 116.665 167.569,115.834 187.018,118.383 197.200 C 119.128 200.172,119.704 202.232,120.005 203.000 C 120.178 203.440,120.545 204.430,120.820 205.200 C 122.211 209.090,124.491 213.189,126.043 214.592 C 127.977 216.338,128.236 216.158,128.616 212.803 C 129.106 208.484,130.038 201.771,130.394 200.000 C 131.346 195.268,131.732 194.002,133.289 190.500 C 133.908 189.108,136.720 184.855,137.718 183.800 C 138.135 183.360,139.002 182.243,139.645 181.318 C 142.503 177.205,144.756 177.723,146.227 182.832 C 146.570 184.024,147.199 185.763,147.625 186.696 C 148.051 187.628,148.400 188.485,148.400 188.600 C 148.400 188.804,148.882 189.911,151.274 195.200 C 152.648 198.239,154.861 202.653,156.990 206.600 C 158.314 209.055,159.203 210.636,162.423 216.265 C 168.983 227.729,176.993 238.142,184.956 245.556 C 186.534 247.026,186.823 247.515,186.721 248.556 C 186.428 251.565,183.085 250.023,176.529 243.853 C 173.927 241.404,170.988 238.772,169.999 238.004 C 164.824 233.989,155.199 224.378,152.384 220.415 C 151.843 219.653,151.086 218.675,150.702 218.242 C 150.318 217.808,148.707 214.888,147.121 211.753 C 143.807 205.197,143.888 205.236,143.254 209.882 C 141.578 222.154,140.360 225.239,136.289 227.529 C 118.516 237.527,101.137 202.534,106.824 168.200 C 107.346 165.051,110.681 151.104,111.464 148.800 C 112.905 144.558,112.973 145.007,110.477 142.242 C 107.532 138.978,102.341 130.082,99.949 124.200 C 98.560 120.782,97.098 116.921,96.541 115.200 C 96.221 114.210,95.807 113.040,95.620 112.600 C 95.434 112.160,95.064 111.170,94.800 110.400 C 94.536 109.630,94.164 108.640,93.973 108.200 C 93.783 107.760,93.260 106.140,92.812 104.600 C 90.853 97.880,89.071 93.751,87.111 91.400 C 86.928 91.180,85.319 89.020,83.536 86.600 C 81.753 84.180,80.182 82.110,80.045 82.000 C 79.236 81.352,74.558 74.762,73.031 72.121 C 66.562 60.929,69.709 49.878,80.600 45.543 C 82.474 44.797,90.348 44.825,93.000 45.588 M88.800 55.600 C 88.800 55.820,89.239 56.000,89.776 56.000 C 90.313 56.000,90.864 56.180,91.000 56.400 C 91.136 56.620,91.687 56.800,92.224 56.800 C 92.761 56.800,93.200 56.980,93.200 57.200 C 93.200 57.420,93.549 57.600,93.976 57.600 C 94.403 57.600,94.864 57.780,95.000 58.000 C 95.136 58.220,95.687 58.400,96.224 58.400 C 96.761 58.400,97.200 58.580,97.200 58.800 C 97.200 59.020,97.545 59.200,97.967 59.200 C 98.388 59.200,98.793 59.335,98.867 59.500 C 99.019 59.843,102.800 61.260,102.800 60.974 C 102.800 60.646,94.966 56.920,92.432 56.043 C 89.743 55.112,88.800 54.997,88.800 55.600 M132.484 89.600 C 136.034 92.273,137.600 95.051,137.600 98.675 C 137.600 103.064,134.737 107.403,132.022 107.129 C 130.603 106.986,130.438 106.761,128.206 101.924 C 127.425 100.232,125.831 97.712,124.663 96.324 C 119.748 90.483,119.605 89.204,123.749 88.190 C 128.052 87.137,129.529 87.376,132.484 89.600 M279.044 265.851 C 279.900 266.429,280.690 267.019,280.800 267.163 C 281.117 267.577,285.970 271.137,287.245 271.890 C 287.880 272.265,288.400 272.714,288.400 272.886 C 288.400 273.059,288.760 273.200,289.200 273.200 C 289.640 273.200,290.000 273.336,290.000 273.502 C 290.000 273.669,290.585 274.059,291.300 274.370 C 292.015 274.681,292.690 275.040,292.800 275.168 C 293.206 275.640,294.808 276.400,295.395 276.400 C 295.728 276.400,296.000 276.580,296.000 276.800 C 296.000 277.020,296.226 277.200,296.502 277.200 C 297.029 277.200,301.662 279.336,306.919 282.004 C 308.635 282.874,309.929 283.409,309.795 283.191 C 309.171 282.182,303.834 279.023,295.600 274.791 C 287.737 270.750,283.664 268.409,279.516 265.548 C 278.920 265.136,278.220 264.800,277.960 264.800 C 277.701 264.800,278.188 265.273,279.044 265.851 M46.153 280.555 C 47.586 281.153,48.743 282.578,49.601 284.800 C 50.126 286.160,51.007 288.192,52.765 292.099 C 53.234 293.143,53.790 294.448,54.000 294.999 C 54.498 296.309,55.145 296.270,55.634 294.900 C 57.198 290.513,61.550 281.774,62.539 281.037 C 64.981 279.216,70.288 280.200,71.218 282.647 C 71.742 284.027,71.714 301.439,71.186 302.426 C 70.700 303.334,66.517 303.557,65.680 302.720 C 65.350 302.390,65.200 300.396,65.200 296.344 C 65.200 288.273,65.306 288.236,60.986 297.800 C 57.880 304.676,52.215 305.601,49.552 299.667 C 49.091 298.640,48.176 296.630,47.519 295.200 C 46.861 293.770,46.051 291.926,45.719 291.103 C 44.701 288.578,44.400 289.783,44.400 296.381 C 44.400 303.557,44.579 303.200,40.981 303.200 C 39.262 303.200,38.745 303.044,38.414 302.426 C 37.897 301.460,37.873 285.629,38.385 283.420 C 39.066 280.483,42.740 279.128,46.153 280.555 M120.720 280.880 C 120.984 281.144,121.200 281.939,121.200 282.647 C 121.200 285.286,121.470 285.200,113.157 285.200 L 105.600 285.200 105.600 287.192 C 105.600 289.583,105.440 289.520,112.000 289.686 C 118.807 289.858,121.233 291.640,121.181 296.428 C 121.121 301.898,118.393 303.217,107.400 303.092 L 99.400 303.000 99.400 300.800 L 99.400 298.600 106.570 298.490 C 114.392 298.371,114.800 298.256,114.800 296.165 C 114.800 294.349,114.233 294.137,108.754 293.906 C 101.327 293.593,99.200 292.100,99.200 287.200 C 99.200 283.529,100.070 282.235,103.400 280.956 C 105.106 280.301,120.075 280.235,120.720 280.880 M141.354 280.880 C 146.261 282.311,146.755 283.306,146.781 291.815 C 146.798 297.465,146.704 298.418,146.000 299.800 C 144.939 301.881,144.968 302.060,146.606 303.551 C 150.039 306.675,144.073 307.875,140.400 304.800 L 138.489 303.200 133.144 303.187 C 123.582 303.164,122.052 301.636,122.018 292.077 C 121.990 284.339,122.947 282.239,127.084 280.954 C 129.124 280.321,139.256 280.269,141.354 280.880 M153.520 280.880 C 153.861 281.221,154.000 283.680,154.000 289.400 C 154.000 299.302,153.192 298.400,162.060 298.400 C 168.195 298.400,169.210 298.488,169.524 299.049 C 169.822 299.583,170.021 299.423,170.643 298.149 C 172.062 295.244,176.014 294.919,177.397 297.595 C 179.574 301.805,174.424 305.051,171.142 301.538 C 169.987 300.301,169.812 300.372,169.518 302.200 C 169.396 302.959,169.031 303.006,162.395 303.124 C 152.110 303.307,149.067 302.270,148.051 298.236 C 147.291 295.220,147.454 282.024,148.262 281.131 C 149.038 280.274,152.737 280.097,153.520 280.880 M103.200 282.232 C 100.072 283.575,99.225 286.800,102.000 286.800 C 102.880 286.800,103.600 286.646,103.600 286.458 C 103.600 286.271,104.041 285.641,104.581 285.058 L 105.562 284.000 112.781 284.000 L 120.000 284.000 120.000 282.800 L 120.000 281.600 112.300 281.616 C 106.365 281.628,104.279 281.769,103.200 282.232 M127.326 282.027 C 125.894 282.457,123.473 284.671,123.821 285.234 C 124.241 285.913,127.354 285.618,128.400 284.800 C 129.524 283.921,140.489 283.573,141.000 284.400 C 141.452 285.131,144.477 284.894,144.329 284.139 C 143.935 282.121,131.967 280.635,127.326 282.027 M149.200 282.367 C 149.200 283.957,149.645 284.400,151.243 284.400 C 152.756 284.400,152.800 284.360,152.800 283.000 C 152.800 281.607,152.790 281.600,151.000 281.600 C 149.492 281.600,149.200 281.725,149.200 282.367 M129.429 285.829 C 128.922 286.336,128.800 287.463,128.800 291.655 C 128.800 297.787,129.019 298.400,131.214 298.400 C 133.029 298.400,133.146 298.208,131.933 297.226 C 130.306 295.909,131.201 295.200,134.487 295.202 C 137.182 295.204,137.497 295.295,138.702 296.424 C 139.418 297.095,140.183 297.534,140.402 297.399 C 141.115 296.958,140.908 286.565,140.171 285.829 C 139.254 284.912,130.346 284.912,129.429 285.829 M79.539 287.326 C 79.790 287.629,80.023 290.048,80.087 293.026 L 80.200 298.200 85.400 298.200 L 90.600 298.200 90.712 292.816 C 90.841 286.657,90.746 286.815,94.292 286.806 C 97.431 286.798,97.296 286.312,97.130 297.045 C 96.939 309.308,96.835 309.400,83.086 309.400 C 73.535 309.400,73.618 309.421,73.606 306.980 C 73.596 304.888,73.927 304.800,81.847 304.800 C 89.437 304.800,90.400 304.683,90.400 303.757 C 90.400 303.313,89.450 303.200,85.700 303.198 C 79.147 303.195,75.806 302.213,74.377 299.870 C 73.442 298.336,73.202 288.158,74.080 287.280 C 74.739 286.621,78.983 286.657,79.539 287.326 M169.506 323.100 C 169.565 329.315,169.737 334.400,169.889 334.400 C 170.040 334.400,172.617 331.970,175.614 329.000 L 181.064 323.600 186.532 323.600 C 190.328 323.600,192.000 323.738,192.000 324.052 C 192.000 324.462,185.328 331.043,180.100 335.790 C 177.318 338.316,176.984 337.659,185.500 346.398 C 194.823 355.965,194.666 355.200,187.308 355.200 L 181.358 355.200 177.560 351.100 C 175.471 348.845,172.982 346.145,172.030 345.100 C 169.620 342.456,169.600 342.489,169.600 349.176 L 169.600 355.152 164.968 355.276 C 162.421 355.344,160.081 355.256,159.768 355.080 C 159.158 354.737,158.875 312.459,159.478 311.855 C 159.631 311.702,161.926 311.627,164.578 311.688 L 169.400 311.800 169.506 323.100 M204.709 319.724 L 204.817 327.648 206.390 326.301 C 207.255 325.561,208.466 324.719,209.081 324.431 C 209.697 324.143,210.513 323.748,210.895 323.553 C 215.474 321.224,223.865 325.068,226.443 330.678 C 233.842 346.771,218.760 363.376,206.374 352.774 L 205.000 351.598 204.879 353.375 L 204.758 355.152 200.147 355.276 C 197.611 355.344,195.281 355.256,194.968 355.080 C 194.358 354.737,194.075 312.459,194.678 311.855 C 194.831 311.702,197.126 311.627,199.778 311.688 L 204.600 311.800 204.709 319.724 M344.000 319.772 C 344.178 326.854,344.267 327.679,344.800 327.153 C 351.475 320.574,362.046 322.236,364.700 330.283 C 365.400 332.405,365.930 353.758,365.306 354.677 C 365.039 355.068,359.332 355.393,355.700 355.223 C 355.318 355.206,355.196 353.291,355.182 347.100 C 355.152 332.885,354.579 330.968,350.380 331.029 C 345.375 331.103,344.264 333.677,344.000 345.800 L 343.800 355.000 339.268 355.200 C 336.775 355.310,334.480 355.256,334.168 355.080 C 333.558 354.737,333.275 312.458,333.878 311.855 C 334.031 311.702,336.326 311.627,338.978 311.688 L 343.800 311.800 344.000 319.772 M48.801 314.100 C 49.142 314.899,50.965 322.265,52.637 329.600 C 52.963 331.030,53.391 332.830,53.589 333.600 C 53.787 334.370,54.152 335.900,54.400 337.000 C 54.648 338.100,55.041 339.720,55.274 340.600 C 55.507 341.480,55.729 342.362,55.768 342.560 C 55.808 342.758,56.137 342.038,56.500 340.960 C 58.083 336.257,60.869 328.149,61.090 327.600 C 61.223 327.270,61.628 326.190,61.991 325.200 L 62.651 323.400 68.059 323.289 L 73.466 323.178 74.510 326.289 C 75.085 328.000,76.297 331.470,77.205 334.000 C 78.112 336.530,79.133 339.500,79.472 340.599 L 80.090 342.598 80.593 341.199 C 80.870 340.430,81.469 338.180,81.924 336.200 C 82.380 334.220,83.207 330.710,83.762 328.400 C 84.317 326.090,85.230 322.220,85.790 319.800 C 86.351 317.380,87.009 314.905,87.253 314.300 L 87.697 313.200 92.649 313.200 C 98.709 313.200,98.404 311.510,94.958 326.000 C 93.343 332.794,92.383 336.879,91.953 338.800 C 91.731 339.790,91.388 341.230,91.190 342.000 C 90.992 342.770,90.436 345.110,89.954 347.200 C 89.473 349.290,88.826 351.936,88.517 353.080 L 87.955 355.159 82.078 355.280 C 75.382 355.417,75.254 355.370,74.436 352.523 C 74.132 351.465,73.781 350.420,73.656 350.200 C 73.531 349.980,72.309 346.474,70.942 342.409 C 68.962 336.524,67.623 333.503,67.598 334.867 C 67.593 335.103,60.818 354.916,60.701 355.032 C 60.639 355.094,57.941 355.184,54.706 355.231 C 48.248 355.326,47.821 355.199,47.471 353.086 C 47.354 352.379,47.055 350.990,46.807 350.000 C 46.559 349.010,46.196 347.480,46.000 346.600 C 45.804 345.720,45.462 344.280,45.240 343.400 C 44.232 339.402,44.021 338.524,43.799 337.400 C 43.669 336.740,43.391 335.525,43.181 334.700 C 42.365 331.486,42.034 330.126,41.600 328.200 C 41.352 327.100,40.987 325.570,40.787 324.800 C 39.710 320.634,38.400 314.713,38.400 314.009 C 38.400 312.681,48.233 312.768,48.801 314.100 M119.972 323.656 C 134.639 328.340,135.592 349.147,121.400 354.838 C 117.871 356.253,109.715 356.200,106.302 354.740 C 93.038 349.065,93.511 328.626,107.012 324.064 C 109.780 323.129,117.554 322.884,119.972 323.656 M157.915 327.565 C 158.051 332.508,158.055 332.501,155.029 331.793 C 147.395 330.009,145.193 333.163,144.833 346.400 L 144.600 355.000 140.068 355.200 C 133.759 355.478,134.400 357.238,134.400 339.629 C 134.400 321.838,133.800 323.530,140.057 323.686 L 144.600 323.800 144.720 325.880 L 144.840 327.960 146.372 326.473 C 147.215 325.655,148.421 324.744,149.052 324.447 C 149.684 324.150,150.470 323.755,150.800 323.569 C 151.130 323.382,152.840 323.268,154.600 323.315 L 157.800 323.400 157.915 327.565 M252.372 323.661 C 259.589 325.993,264.195 332.981,263.538 340.600 L 263.400 342.200 251.870 342.306 L 240.339 342.412 240.619 343.706 C 241.911 349.672,250.946 350.786,260.146 346.114 C 261.797 345.275,262.048 345.802,261.916 349.822 L 261.800 353.372 259.800 354.035 C 246.964 358.294,234.059 355.139,231.024 347.000 C 227.147 336.603,231.239 327.044,241.000 323.697 C 242.665 323.126,250.636 323.101,252.372 323.661 M292.615 324.049 C 297.592 326.388,298.458 329.044,298.700 342.701 C 298.945 356.506,299.495 355.200,293.435 355.200 C 287.399 355.200,288.000 356.462,288.000 343.774 L 288.000 333.613 286.832 332.306 C 284.560 329.764,280.633 330.694,278.537 334.272 L 277.436 336.150 277.269 345.651 L 277.101 355.153 272.451 355.277 C 268.784 355.374,267.694 355.278,267.300 354.824 C 266.722 354.157,266.568 324.985,267.138 324.087 C 267.380 323.705,268.686 323.602,272.232 323.687 L 277.000 323.800 277.200 325.600 C 277.437 327.733,277.526 327.758,279.261 326.187 C 282.625 323.141,288.636 322.179,292.615 324.049 M326.185 323.779 C 329.299 324.590,329.200 324.425,329.200 328.824 C 329.200 333.267,329.300 333.161,326.348 331.835 C 318.557 328.337,312.432 331.752,312.409 339.606 C 312.387 347.206,319.279 350.835,326.732 347.146 C 329.280 345.885,329.272 345.874,329.117 350.589 C 329.029 353.236,328.850 354.191,328.400 354.419 C 326.474 355.394,323.763 355.800,319.200 355.797 C 314.123 355.794,313.270 355.623,309.664 353.877 C 297.927 348.196,299.098 328.315,311.400 324.405 C 312.280 324.125,313.360 323.752,313.800 323.575 C 315.196 323.015,323.795 323.157,326.185 323.779 M244.152 330.575 C 242.798 331.164,241.041 333.259,240.693 334.700 L 240.475 335.600 246.681 335.600 L 252.887 335.600 252.625 334.500 C 251.779 330.938,247.680 329.039,244.152 330.575 M111.369 331.185 C 106.581 333.621,106.192 344.406,110.781 347.499 C 114.190 349.796,118.864 347.827,119.996 343.617 C 122.231 335.305,117.284 328.176,111.369 331.185 M208.542 331.197 C 203.667 333.164,203.571 345.303,208.412 347.806 C 212.756 350.053,216.917 346.956,217.467 341.066 C 218.166 333.574,214.019 328.987,208.542 331.197 " stroke="none" fill="#f5fafb" fill-rule="evenodd"></path><path id="path2" d="M34.800 23.825 C 29.939 24.881,25.492 29.144,24.428 33.767 C 24.073 35.306,23.989 75.309,24.080 198.400 L 24.200 361.000 25.313 363.267 C 27.096 366.898,30.138 369.419,34.360 370.766 C 36.834 371.556,365.523 371.361,368.249 370.569 C 373.338 369.089,376.898 364.965,378.023 359.244 C 378.856 355.011,378.282 35.708,377.437 33.000 C 376.253 29.208,372.882 25.740,368.800 24.116 C 366.323 23.131,39.308 22.846,34.800 23.825 M366.202 24.135 C 371.209 25.090,374.205 27.294,376.302 31.564 L 377.400 33.800 377.400 197.428 L 377.400 361.056 376.435 362.932 C 374.876 365.963,372.981 367.861,370.092 369.283 L 367.417 370.600 201.008 370.600 L 34.600 370.600 32.400 369.547 C 30.099 368.445,26.800 365.693,26.800 364.876 C 26.800 364.614,26.641 364.400,26.447 364.400 C 26.252 364.400,25.984 364.085,25.851 363.700 C 24.348 359.356,24.412 366.803,24.406 197.360 C 24.402 81.996,24.525 34.928,24.834 33.960 C 26.579 28.489,30.268 25.133,35.600 24.163 C 39.666 23.423,362.328 23.396,366.202 24.135 M82.800 45.053 C 79.948 45.403,76.404 47.285,74.239 49.600 C 68.612 55.615,68.177 63.724,73.031 72.121 C 74.558 74.762,79.236 81.352,80.045 82.000 C 80.182 82.110,81.753 84.180,83.536 86.600 C 85.319 89.020,86.928 91.180,87.111 91.400 C 89.071 93.751,90.853 97.880,92.812 104.600 C 93.260 106.140,93.783 107.760,93.973 108.200 C 94.164 108.640,94.536 109.630,94.800 110.400 C 95.064 111.170,95.434 112.160,95.620 112.600 C 95.807 113.040,96.221 114.210,96.541 115.200 C 97.098 116.921,98.560 120.782,99.949 124.200 C 102.341 130.082,107.532 138.978,110.477 142.242 C 112.973 145.007,112.905 144.558,111.464 148.800 C 110.681 151.104,107.346 165.051,106.824 168.200 C 101.137 202.534,118.516 237.527,136.289 227.529 C 140.360 225.239,141.578 222.154,143.254 209.882 C 143.888 205.236,143.807 205.197,147.121 211.753 C 148.707 214.888,150.318 217.808,150.702 218.242 C 151.086 218.675,151.843 219.653,152.384 220.415 C 155.199 224.378,164.824 233.989,169.999 238.004 C 170.988 238.772,173.927 241.404,176.529 243.853 C 183.085 250.023,186.428 251.565,186.721 248.556 C 186.823 247.515,186.534 247.026,184.956 245.556 C 176.993 238.142,168.983 227.729,162.423 216.265 C 159.203 210.636,158.314 209.055,156.990 206.600 C 154.861 202.653,152.648 198.239,151.274 195.200 C 148.882 189.911,148.400 188.804,148.400 188.600 C 148.400 188.485,148.051 187.628,147.625 186.696 C 147.199 185.763,146.570 184.024,146.227 182.832 C 144.756 177.723,142.503 177.205,139.645 181.318 C 139.002 182.243,138.135 183.360,137.718 183.800 C 136.720 184.855,133.908 189.108,133.289 190.500 C 131.732 194.002,131.346 195.268,130.394 200.000 C 130.038 201.771,129.106 208.484,128.616 212.803 C 128.236 216.158,127.977 216.338,126.043 214.592 C 124.491 213.189,122.211 209.090,120.820 205.200 C 120.545 204.430,120.178 203.440,120.005 203.000 C 119.467 201.630,118.159 196.541,117.794 194.400 C 117.663 193.630,117.355 190.147,117.110 186.660 C 116.385 176.349,117.544 165.416,119.999 159.400 C 125.710 145.408,125.712 141.733,120.010 135.600 C 114.132 129.277,110.289 121.382,105.991 106.800 C 105.700 105.810,105.312 104.829,105.130 104.620 C 104.949 104.411,104.800 103.914,104.800 103.515 C 104.800 103.116,104.642 102.477,104.449 102.095 C 104.256 101.713,103.884 100.680,103.623 99.800 C 102.967 97.595,102.317 95.976,100.425 91.844 C 98.641 87.947,90.951 76.575,87.817 73.200 C 86.467 71.746,83.082 66.506,82.071 64.304 C 79.039 57.705,83.896 55.843,93.627 59.874 C 99.985 62.507,109.183 67.557,111.135 69.484 C 111.429 69.774,112.329 70.503,113.135 71.104 C 113.941 71.704,114.690 72.306,114.800 72.442 C 115.606 73.435,118.207 74.213,121.600 74.474 C 123.690 74.634,127.830 74.948,130.800 75.171 C 137.997 75.711,139.057 75.965,145.957 78.799 C 150.193 80.539,156.944 83.918,158.862 85.258 C 159.446 85.666,160.038 86.000,160.179 86.000 C 160.528 86.000,169.685 92.104,172.399 94.146 C 182.712 101.905,192.622 111.496,200.111 120.965 C 201.171 122.304,202.254 123.670,202.520 124.000 C 207.869 130.653,218.800 148.893,218.800 151.166 C 218.800 151.411,218.966 151.923,219.168 152.305 C 219.370 152.687,219.942 154.080,220.437 155.400 C 221.754 158.906,222.476 160.486,229.389 175.000 C 230.437 177.200,231.704 179.900,232.204 181.000 C 232.705 182.100,233.764 184.390,234.557 186.089 C 235.351 187.787,236.000 189.292,236.000 189.431 C 236.000 189.998,240.910 199.411,243.117 203.077 C 246.581 208.829,248.258 209.883,259.800 213.561 C 262.000 214.262,264.160 214.990,264.600 215.178 C 265.040 215.366,266.030 215.736,266.800 216.000 C 267.570 216.264,268.560 216.625,269.000 216.801 C 269.440 216.978,270.880 217.533,272.200 218.036 C 273.520 218.539,275.918 219.816,277.529 220.875 C 279.141 221.934,280.530 222.800,280.616 222.800 C 280.703 222.800,283.705 224.845,287.287 227.344 C 290.869 229.843,295.675 233.128,297.967 234.644 C 303.201 238.106,303.187 238.144,296.503 238.462 C 290.837 238.731,285.804 239.283,283.000 239.942 C 282.120 240.149,280.770 240.446,280.000 240.604 C 273.072 242.018,265.189 245.454,264.199 247.491 C 263.519 248.889,263.388 248.394,265.916 254.000 C 267.555 257.637,272.169 263.303,275.947 266.318 C 277.406 267.482,278.919 268.699,279.308 269.021 C 279.698 269.343,281.948 270.916,284.308 272.517 C 288.270 275.204,290.766 276.533,301.800 281.827 C 307.577 284.599,316.399 290.641,321.665 295.432 C 328.975 302.083,329.361 294.752,322.107 287.063 C 320.398 285.252,318.190 282.793,317.200 281.600 C 314.675 278.555,309.844 273.732,306.968 271.385 C 301.866 267.220,300.453 266.240,293.066 261.740 C 285.451 257.101,281.119 253.200,283.580 253.200 C 284.010 253.200,285.405 252.913,286.680 252.561 C 291.522 251.228,295.386 250.382,297.600 250.169 C 303.627 249.589,310.476 248.204,315.800 246.488 C 319.503 245.294,319.963 243.529,317.435 240.221 C 312.739 234.076,310.129 231.215,307.128 228.924 C 306.319 228.306,304.339 226.721,302.728 225.402 C 294.169 218.393,282.477 210.235,277.200 207.591 C 274.391 206.183,273.326 205.690,268.500 203.562 C 267.455 203.101,265.610 202.273,264.400 201.720 C 261.556 200.422,260.915 200.160,259.075 199.537 C 257.046 198.851,255.410 196.743,252.913 191.600 C 251.792 189.290,248.902 183.350,246.491 178.400 C 242.369 169.934,240.845 166.728,238.556 161.700 C 238.030 160.545,237.163 158.655,236.629 157.500 C 236.095 156.345,234.550 152.610,233.195 149.200 C 227.841 135.722,222.748 127.358,210.542 112.000 C 205.908 106.169,193.386 93.604,188.617 90.000 C 187.889 89.450,185.911 87.920,184.221 86.600 C 176.436 80.518,161.674 70.797,156.795 68.540 C 153.557 67.042,151.938 66.400,151.399 66.400 C 151.064 66.400,150.477 66.238,150.095 66.039 C 149.713 65.840,148.680 65.495,147.800 65.272 C 146.920 65.049,145.435 64.671,144.500 64.433 C 143.565 64.195,142.125 63.835,141.300 63.633 C 140.475 63.431,139.080 63.086,138.200 62.865 C 136.518 62.443,127.689 61.591,125.062 61.597 C 123.427 61.600,122.377 61.010,119.000 58.191 C 116.251 55.895,111.785 53.247,106.149 50.570 C 99.869 47.588,99.596 47.484,93.000 45.588 C 91.549 45.171,84.747 44.814,82.800 45.053 M92.432 56.043 C 94.966 56.920,102.800 60.646,102.800 60.974 C 102.800 61.260,99.019 59.843,98.867 59.500 C 98.793 59.335,98.388 59.200,97.967 59.200 C 97.545 59.200,97.200 59.020,97.200 58.800 C 97.200 58.580,96.761 58.400,96.224 58.400 C 95.687 58.400,95.136 58.220,95.000 58.000 C 94.864 57.780,94.403 57.600,93.976 57.600 C 93.549 57.600,93.200 57.420,93.200 57.200 C 93.200 56.980,92.761 56.800,92.224 56.800 C 91.687 56.800,91.136 56.620,91.000 56.400 C 90.864 56.180,90.313 56.000,89.776 56.000 C 89.239 56.000,88.800 55.820,88.800 55.600 C 88.800 54.997,89.743 55.112,92.432 56.043 M123.749 88.190 C 119.605 89.204,119.748 90.483,124.663 96.324 C 125.831 97.712,127.425 100.232,128.206 101.924 C 130.438 106.761,130.603 106.986,132.022 107.129 C 136.395 107.570,139.184 99.066,136.370 93.871 C 133.601 88.759,129.313 86.829,123.749 88.190 M131.545 90.991 C 136.129 94.365,137.475 99.992,134.469 103.218 C 133.736 104.005,133.694 103.965,131.163 100.064 C 129.753 97.891,127.999 95.683,127.264 95.157 C 121.560 91.071,121.212 89.947,125.532 89.563 C 127.000 89.433,128.405 89.298,128.656 89.263 C 128.907 89.228,130.207 90.006,131.545 90.991 M102.074 106.704 C 104.026 106.936,104.414 107.487,105.943 112.200 C 109.742 123.907,113.332 130.730,118.790 136.617 C 124.041 142.281,124.041 144.011,118.784 158.000 C 115.514 166.700,114.115 178.917,115.219 189.123 C 115.928 195.670,117.684 203.919,118.833 206.095 C 119.892 208.099,118.341 209.760,116.595 208.494 C 115.424 207.645,112.316 199.701,110.376 192.600 C 109.896 190.840,109.155 188.320,108.730 187.000 C 107.001 181.624,107.755 169.654,110.481 159.200 C 111.026 157.110,111.689 154.410,111.953 153.200 C 112.746 149.569,113.310 147.858,114.087 146.721 C 115.435 144.749,114.862 141.267,112.746 138.565 C 111.786 137.339,110.418 135.585,109.706 134.668 C 108.005 132.475,104.500 126.607,102.498 122.600 C 101.001 119.604,99.870 116.881,97.930 111.600 C 97.486 110.390,96.976 109.040,96.797 108.600 C 95.942 106.494,95.960 106.451,97.721 106.295 C 98.644 106.212,99.670 106.232,100.000 106.337 C 100.330 106.443,101.263 106.608,102.074 106.704 M211.800 122.000 C 211.936 122.220,212.746 122.400,213.600 122.400 C 214.454 122.400,215.264 122.580,215.400 122.800 C 215.536 123.020,215.919 123.200,216.252 123.200 C 217.064 123.200,217.502 123.685,219.863 127.200 C 225.312 135.308,228.065 140.448,230.983 147.955 C 233.750 155.077,235.669 159.531,240.305 169.600 C 240.963 171.030,243.123 175.530,245.103 179.600 C 247.084 183.670,249.109 187.900,249.602 189.000 C 253.885 198.545,255.397 200.541,259.323 201.836 C 260.465 202.213,263.197 203.394,265.392 204.461 C 267.588 205.527,269.494 206.400,269.628 206.400 C 269.762 206.400,270.846 206.951,272.036 207.624 L 274.200 208.848 269.690 208.694 C 266.971 208.601,264.993 208.353,264.710 208.070 C 264.451 207.811,263.862 207.600,263.400 207.600 C 262.938 207.600,262.389 207.448,262.180 207.263 C 261.971 207.077,260.720 206.597,259.400 206.195 C 251.802 203.883,249.372 201.626,243.909 191.800 C 239.611 184.072,222.800 151.135,222.800 150.444 C 222.800 148.234,217.381 138.099,210.972 128.324 C 207.684 123.307,206.992 122.012,207.529 121.870 C 208.840 121.524,211.557 121.606,211.800 122.000 M143.922 181.500 C 144.153 182.105,144.547 183.320,144.798 184.200 C 145.050 185.080,145.447 186.250,145.681 186.800 C 145.915 187.350,146.245 188.160,146.414 188.600 C 146.582 189.040,147.098 190.253,147.560 191.296 C 148.022 192.338,148.400 193.279,148.400 193.386 C 148.400 193.493,148.940 194.759,149.600 196.200 C 150.260 197.641,150.800 198.905,150.800 199.009 C 150.800 199.113,151.789 201.224,152.998 203.699 C 155.593 209.012,155.557 208.800,153.862 208.800 C 152.318 208.800,151.914 208.402,149.804 204.800 C 146.259 198.748,142.806 196.651,140.636 199.231 C 139.400 200.699,139.355 201.622,140.409 203.944 C 140.844 204.903,141.200 206.388,141.200 207.244 L 141.200 208.800 138.245 208.800 L 135.289 208.800 135.033 207.436 C 134.877 206.606,134.314 205.706,133.592 205.136 C 130.456 202.659,133.196 192.816,139.273 184.726 C 142.728 180.128,143.259 179.759,143.922 181.500 M279.516 265.548 C 283.664 268.409,287.737 270.750,295.600 274.791 C 303.834 279.023,309.171 282.182,309.795 283.191 C 309.929 283.409,308.635 282.874,306.919 282.004 C 301.662 279.336,297.029 277.200,296.502 277.200 C 296.226 277.200,296.000 277.020,296.000 276.800 C 296.000 276.580,295.728 276.400,295.395 276.400 C 294.808 276.400,293.206 275.640,292.800 275.168 C 292.690 275.040,292.015 274.681,291.300 274.370 C 290.585 274.059,290.000 273.669,290.000 273.502 C 290.000 273.336,289.640 273.200,289.200 273.200 C 288.760 273.200,288.400 273.059,288.400 272.886 C 288.400 272.714,287.880 272.265,287.245 271.890 C 285.970 271.137,281.117 267.577,280.800 267.163 C 280.690 267.019,279.900 266.429,279.044 265.851 C 278.188 265.273,277.701 264.800,277.960 264.800 C 278.220 264.800,278.920 265.136,279.516 265.548 M41.400 280.272 C 38.457 280.874,38.022 282.548,38.010 293.326 C 37.998 303.162,38.010 303.200,40.981 303.200 C 44.579 303.200,44.400 303.557,44.400 296.381 C 44.400 289.783,44.701 288.578,45.719 291.103 C 46.051 291.926,46.861 293.770,47.519 295.200 C 48.176 296.630,49.091 298.640,49.552 299.667 C 52.215 305.601,57.880 304.676,60.986 297.800 C 65.306 288.236,65.200 288.273,65.200 296.344 C 65.200 300.396,65.350 302.390,65.680 302.720 C 66.517 303.557,70.700 303.334,71.186 302.426 C 71.714 301.439,71.742 284.027,71.218 282.647 C 70.288 280.200,64.981 279.216,62.539 281.037 C 61.550 281.774,57.198 290.513,55.634 294.900 C 55.145 296.270,54.498 296.309,54.000 294.999 C 53.790 294.448,53.234 293.143,52.765 292.099 C 51.007 288.192,50.126 286.160,49.601 284.800 C 48.069 280.834,45.525 279.430,41.400 280.272 M74.080 287.280 C 73.202 288.158,73.442 298.336,74.377 299.870 C 75.806 302.213,79.147 303.195,85.700 303.198 C 89.450 303.200,90.400 303.313,90.400 303.757 C 90.400 304.683,89.437 304.800,81.847 304.800 C 73.927 304.800,73.596 304.888,73.606 306.980 C 73.618 309.421,73.535 309.400,83.086 309.400 C 96.835 309.400,96.939 309.308,97.130 297.045 C 97.296 286.312,97.431 286.798,94.292 286.806 C 90.746 286.815,90.841 286.657,90.712 292.816 L 90.600 298.200 85.400 298.200 L 80.200 298.200 80.087 293.026 C 80.023 290.048,79.790 287.629,79.539 287.326 C 78.983 286.657,74.739 286.621,74.080 287.280 M50.307 289.134 C 50.904 289.513,53.200 295.300,53.200 296.425 C 53.200 297.512,50.701 297.501,49.610 296.410 C 47.829 294.629,45.844 289.903,46.634 289.326 C 47.431 288.743,49.520 288.634,50.307 289.134 M62.569 289.588 L 63.574 289.970 62.882 291.485 C 60.609 296.457,59.992 297.200,58.136 297.200 C 55.982 297.200,55.876 296.490,57.469 292.726 C 59.200 288.637,59.531 288.433,62.569 289.588 M43.600 292.124 C 43.600 295.258,43.064 296.079,40.970 296.148 L 39.400 296.200 39.284 293.383 C 39.157 290.295,39.622 289.754,42.500 289.643 C 43.588 289.600,43.600 289.627,43.600 292.124 M69.962 290.258 C 70.910 290.923,71.010 293.945,70.157 296.167 C 69.337 298.305,66.584 296.336,66.210 293.343 C 65.753 289.683,67.311 288.402,69.962 290.258 M78.973 291.395 C 79.117 292.162,79.111 294.151,78.960 295.814 L 78.686 298.839 77.443 298.572 C 74.906 298.028,74.416 297.142,74.404 293.074 C 74.395 289.714,78.382 288.248,78.973 291.395 M96.071 291.900 C 96.167 292.945,96.145 294.880,96.022 296.200 L 95.800 298.600 94.173 298.719 C 92.158 298.867,91.600 297.933,91.600 294.407 C 91.600 290.736,92.024 290.000,94.139 290.000 L 95.898 290.000 96.071 291.900 M159.478 311.855 C 158.875 312.459,159.158 354.737,159.768 355.080 C 160.081 355.256,162.421 355.344,164.968 355.276 L 169.600 355.152 169.600 349.176 C 169.600 342.489,169.620 342.456,172.030 345.100 C 172.982 346.145,175.471 348.845,177.560 351.100 L 181.358 355.200 187.308 355.200 C 194.666 355.200,194.823 355.965,185.500 346.398 C 176.984 337.659,177.318 338.316,180.100 335.790 C 185.328 331.043,192.000 324.462,192.000 324.052 C 192.000 323.738,190.328 323.600,186.532 323.600 L 181.064 323.600 175.614 329.000 C 172.617 331.970,170.040 334.400,169.889 334.400 C 169.737 334.400,169.565 329.315,169.506 323.100 L 169.400 311.800 164.578 311.688 C 161.926 311.627,159.631 311.702,159.478 311.855 M194.678 311.855 C 194.075 312.459,194.358 354.737,194.968 355.080 C 195.281 355.256,197.611 355.344,200.147 355.276 L 204.758 355.152 204.879 353.375 L 205.000 351.598 206.374 352.774 C 211.407 357.082,218.506 357.035,223.138 352.663 C 231.364 344.899,229.505 328.461,219.904 324.068 C 217.888 323.145,212.322 322.827,210.895 323.553 C 210.513 323.748,209.697 324.143,209.081 324.431 C 208.466 324.719,207.255 325.561,206.390 326.301 L 204.817 327.648 204.709 319.724 L 204.600 311.800 199.778 311.688 C 197.126 311.627,194.831 311.702,194.678 311.855 M333.878 311.855 C 333.275 312.458,333.558 354.737,334.168 355.080 C 334.480 355.256,336.775 355.310,339.268 355.200 L 343.800 355.000 344.000 345.800 C 344.264 333.677,345.375 331.103,350.380 331.029 C 354.579 330.968,355.152 332.885,355.182 347.100 C 355.196 353.291,355.318 355.206,355.700 355.223 C 359.332 355.393,365.039 355.068,365.306 354.677 C 365.930 353.758,365.400 332.405,364.700 330.283 C 362.361 323.189,353.997 320.838,347.200 325.364 C 346.210 326.023,345.130 326.828,344.800 327.153 C 344.267 327.679,344.178 326.854,344.000 319.772 L 343.800 311.800 338.978 311.688 C 336.326 311.627,334.031 311.702,333.878 311.855 M169.106 323.386 C 169.165 329.539,169.363 334.723,169.546 334.906 C 169.729 335.089,172.291 332.800,175.239 329.819 L 180.600 324.401 185.974 324.400 L 191.348 324.400 187.774 327.694 C 180.933 333.998,177.175 337.773,177.287 338.228 C 177.349 338.480,180.691 342.087,184.712 346.243 C 188.734 350.399,192.019 353.964,192.011 354.163 C 192.004 354.366,189.653 354.496,186.699 354.457 L 181.400 354.387 177.862 350.694 C 175.915 348.662,173.413 345.965,172.302 344.700 C 169.289 341.272,169.200 341.377,169.200 348.374 L 169.200 354.349 164.900 354.475 C 162.535 354.545,160.375 354.537,160.100 354.458 C 159.551 354.300,159.333 312.800,159.879 312.254 C 160.032 312.101,162.147 312.026,164.579 312.088 L 169.000 312.200 169.106 323.386 M204.400 319.933 C 204.400 329.119,204.335 328.944,206.855 326.588 C 207.916 325.595,209.331 324.674,210.000 324.540 C 210.669 324.406,211.314 324.140,211.432 323.948 C 211.755 323.425,217.197 323.541,218.818 324.106 C 228.730 327.561,231.018 344.668,222.592 352.327 C 218.133 356.381,209.799 356.204,206.244 351.980 C 204.870 350.346,204.400 350.498,204.400 352.574 L 204.400 354.349 200.100 354.475 C 197.735 354.545,195.575 354.537,195.300 354.458 C 194.759 354.302,194.529 312.804,195.067 312.267 C 195.213 312.120,197.373 312.000,199.867 312.000 L 204.400 312.000 204.400 319.933 M343.600 319.933 C 343.600 328.969,343.573 328.879,345.709 326.949 C 350.506 322.616,358.014 322.400,361.908 326.483 C 364.523 329.226,364.800 330.834,364.800 343.294 L 364.800 354.400 360.833 354.400 C 358.651 354.400,356.581 354.509,356.233 354.643 C 355.666 354.860,355.600 353.867,355.600 345.189 C 355.600 334.357,355.362 332.869,353.388 331.364 C 351.006 329.547,347.084 330.373,345.322 333.063 C 343.805 335.379,343.612 336.793,343.606 345.674 L 343.600 354.349 339.300 354.477 C 336.935 354.547,334.865 354.548,334.700 354.479 C 334.535 354.409,334.400 344.823,334.400 333.176 L 334.400 312.000 339.000 312.000 L 343.600 312.000 343.600 319.933 M38.400 314.009 C 38.400 314.713,39.710 320.634,40.787 324.800 C 40.987 325.570,41.352 327.100,41.600 328.200 C 42.034 330.126,42.365 331.486,43.181 334.700 C 43.391 335.525,43.669 336.740,43.799 337.400 C 44.021 338.524,44.232 339.402,45.240 343.400 C 45.462 344.280,45.804 345.720,46.000 346.600 C 46.196 347.480,46.559 349.010,46.807 350.000 C 47.055 350.990,47.354 352.379,47.471 353.086 C 47.821 355.199,48.248 355.326,54.706 355.231 C 57.941 355.184,60.639 355.094,60.701 355.032 C 60.821 354.913,67.593 335.100,67.598 334.857 C 67.599 334.779,67.870 334.818,68.200 334.945 C 68.608 335.101,68.800 334.923,68.800 334.387 C 68.800 333.904,68.530 333.600,68.100 333.600 C 67.541 333.601,66.700 335.680,63.933 343.900 L 60.465 354.200 54.733 354.400 C 51.580 354.510,48.852 354.488,48.670 354.350 C 48.311 354.078,47.393 350.508,44.823 339.400 C 43.907 335.440,42.987 331.525,42.779 330.700 C 41.909 327.255,41.628 326.099,41.200 324.200 C 40.781 322.341,40.506 321.225,39.574 317.600 C 39.376 316.830,39.166 315.750,39.107 315.200 L 39.000 314.200 43.632 314.088 L 48.264 313.976 48.712 315.488 C 48.959 316.320,49.268 317.516,49.400 318.147 C 49.531 318.778,49.740 319.193,49.865 319.069 C 50.122 318.811,49.278 314.956,48.733 313.900 C 48.138 312.747,38.400 312.849,38.400 314.009 M87.253 314.300 C 87.009 314.905,86.351 317.380,85.790 319.800 C 84.539 325.203,83.028 331.522,81.942 335.887 C 81.492 337.694,81.198 339.395,81.289 339.666 C 81.379 339.938,81.771 338.818,82.159 337.180 C 82.547 335.541,83.392 331.950,84.037 329.200 C 84.682 326.450,85.388 323.647,85.605 322.972 C 85.822 322.296,86.000 321.409,86.000 321.000 C 86.000 320.591,86.173 319.704,86.384 319.028 C 86.595 318.353,86.995 316.945,87.271 315.900 L 87.775 314.000 92.221 314.000 C 97.321 314.000,97.224 313.959,96.748 315.920 C 96.405 317.332,96.153 318.408,95.161 322.700 C 94.637 324.963,94.152 326.988,93.578 329.300 C 93.346 330.235,92.996 331.720,92.800 332.600 C 92.604 333.480,92.244 335.010,92.000 336.000 C 91.756 336.990,91.396 338.520,91.200 339.400 C 91.004 340.280,90.646 341.810,90.404 342.800 C 90.161 343.790,89.809 345.230,89.621 346.000 C 89.049 348.337,88.369 351.321,88.071 352.800 L 87.788 354.200 81.994 354.400 C 75.351 354.629,75.533 354.690,74.797 351.989 C 74.492 350.867,74.097 349.860,73.921 349.751 C 73.744 349.642,73.600 349.124,73.600 348.600 C 73.600 348.076,73.420 347.536,73.200 347.400 C 72.980 347.264,72.800 346.801,72.800 346.371 C 72.800 345.941,72.626 345.277,72.414 344.895 C 72.202 344.513,71.471 342.490,70.790 340.400 C 70.109 338.310,69.468 336.349,69.366 336.043 C 69.264 335.736,69.078 335.589,68.951 335.716 C 68.743 335.924,72.820 348.568,73.557 350.000 C 73.727 350.330,74.118 351.465,74.427 352.523 C 75.258 355.371,75.384 355.417,82.078 355.280 L 87.955 355.159 88.517 353.080 C 88.826 351.936,89.473 349.290,89.954 347.200 C 90.436 345.110,90.992 342.770,91.190 342.000 C 91.388 341.230,91.731 339.790,91.953 338.800 C 92.383 336.879,93.343 332.794,94.958 326.000 C 98.404 311.510,98.709 313.200,92.649 313.200 L 87.697 313.200 87.253 314.300 M50.000 320.405 C 50.000 320.921,50.168 321.896,50.373 322.572 C 50.982 324.579,51.491 326.656,53.025 333.400 C 54.774 341.086,55.582 343.786,56.000 343.336 C 56.320 342.991,57.839 338.772,61.124 329.100 L 62.992 323.600 68.028 323.600 L 73.064 323.600 74.407 327.700 C 75.145 329.955,75.862 331.980,76.000 332.200 C 76.138 332.420,76.677 333.950,77.198 335.600 C 77.718 337.250,78.292 338.771,78.472 338.980 C 78.652 339.189,78.800 339.686,78.800 340.085 C 78.800 340.484,78.967 341.123,79.171 341.505 C 79.375 341.887,79.658 342.560,79.800 343.000 C 80.117 343.983,81.185 342.405,81.153 341.000 C 81.139 340.385,81.014 340.475,80.610 341.391 L 80.085 342.583 79.470 340.591 C 79.132 339.496,78.112 336.530,77.205 334.000 C 76.297 331.470,75.085 328.000,74.510 326.289 L 73.466 323.178 68.059 323.289 L 62.651 323.400 61.991 325.200 C 61.628 326.190,61.223 327.270,61.090 327.600 C 60.869 328.149,58.083 336.257,56.500 340.960 C 56.137 342.038,55.808 342.758,55.768 342.560 C 55.729 342.362,55.507 341.480,55.274 340.600 C 55.041 339.720,54.648 338.100,54.400 337.000 C 54.152 335.900,53.787 334.370,53.589 333.600 C 53.391 332.830,52.962 331.030,52.635 329.600 C 50.480 320.165,50.000 318.489,50.000 320.405 M107.012 324.064 C 93.511 328.626,93.038 349.065,106.302 354.740 C 111.420 356.929,120.911 356.005,125.112 352.908 C 134.266 346.161,133.121 329.693,123.170 324.955 C 118.875 322.910,111.612 322.510,107.012 324.064 M150.800 323.569 C 150.470 323.755,149.684 324.150,149.052 324.447 C 148.421 324.744,147.215 325.655,146.372 326.473 L 144.840 327.960 144.720 325.880 L 144.600 323.800 140.057 323.686 C 133.800 323.530,134.400 321.838,134.400 339.629 C 134.400 357.238,133.759 355.478,140.068 355.200 L 144.600 355.000 144.833 346.400 C 145.193 333.163,147.395 330.009,155.029 331.793 C 158.055 332.501,158.051 332.508,157.915 327.565 L 157.800 323.400 154.600 323.315 C 152.840 323.268,151.130 323.382,150.800 323.569 M241.000 323.697 C 231.239 327.044,227.147 336.603,231.024 347.000 C 234.059 355.139,246.964 358.294,259.800 354.035 L 261.800 353.372 261.916 349.822 C 262.058 345.503,261.915 345.331,259.171 346.531 C 257.977 347.054,256.460 347.627,255.800 347.805 C 255.098 347.994,254.855 348.190,255.214 348.277 C 255.552 348.359,257.127 347.890,258.714 347.235 L 261.600 346.045 261.600 349.325 C 261.600 353.000,261.615 352.982,257.700 353.971 C 256.765 354.207,255.304 354.580,254.454 354.800 C 252.070 355.417,243.328 355.291,241.076 354.608 C 226.097 350.063,226.355 328.102,241.434 324.174 C 252.489 321.295,261.177 326.618,262.791 337.260 C 263.578 342.445,264.644 342.000,251.436 342.000 C 239.166 342.000,239.184 341.997,240.031 344.124 C 241.207 347.074,243.836 349.261,246.084 349.158 C 246.805 349.125,246.701 349.018,245.600 348.654 C 242.658 347.683,241.158 346.193,240.619 343.706 L 240.339 342.412 251.870 342.306 L 263.400 342.200 263.538 340.600 C 264.195 332.981,259.589 325.993,252.372 323.661 C 250.636 323.101,242.665 323.126,241.000 323.697 M282.400 324.107 C 281.410 324.584,279.997 325.520,279.261 326.187 C 277.526 327.758,277.437 327.733,277.200 325.600 L 277.000 323.800 272.232 323.687 C 268.686 323.602,267.380 323.705,267.138 324.087 C 266.568 324.985,266.722 354.157,267.300 354.824 C 267.694 355.278,268.784 355.374,272.451 355.277 L 277.101 355.153 277.269 345.651 L 277.436 336.150 278.537 334.272 C 280.633 330.694,284.560 329.764,286.832 332.306 L 288.000 333.613 288.000 343.774 C 288.000 356.462,287.399 355.200,293.435 355.200 C 299.495 355.200,298.945 356.506,298.700 342.701 C 298.491 330.916,298.207 329.321,295.820 326.532 C 292.951 323.179,286.677 322.046,282.400 324.107 M313.800 323.575 C 313.360 323.752,312.280 324.125,311.400 324.405 C 304.979 326.446,301.805 331.407,301.802 339.407 C 301.799 348.109,304.559 352.087,312.800 355.256 C 314.683 355.980,323.586 355.984,326.000 355.261 C 329.068 354.343,328.989 354.462,329.117 350.589 C 329.251 346.514,329.072 345.676,328.218 346.385 C 327.903 346.646,326.781 347.198,325.723 347.611 C 324.665 348.024,324.122 348.371,324.516 348.381 C 324.910 348.392,325.938 348.040,326.800 347.600 C 327.662 347.160,328.472 346.800,328.600 346.800 C 328.727 346.800,328.779 348.375,328.716 350.300 L 328.600 353.800 326.600 354.375 C 317.417 357.014,306.428 353.764,303.737 347.613 C 303.397 346.836,302.912 345.768,302.659 345.239 C 300.835 341.423,302.545 332.221,305.760 328.552 C 309.208 324.619,319.029 322.295,325.000 323.999 C 325.880 324.250,327.050 324.582,327.600 324.737 C 328.557 325.005,328.605 325.169,328.716 328.509 C 328.843 332.372,328.866 332.346,326.406 331.157 C 322.076 329.065,316.201 329.887,313.777 332.924 C 308.295 339.795,314.091 350.841,322.157 348.893 C 323.785 348.500,323.776 348.496,321.149 348.448 C 315.238 348.341,312.392 345.461,312.409 339.606 C 312.432 331.752,318.557 328.337,326.348 331.835 C 327.530 332.366,328.655 332.800,328.848 332.800 C 329.335 332.800,329.293 324.905,328.805 324.603 C 326.865 323.404,316.070 322.664,313.800 323.575 M120.200 324.282 C 132.984 327.460,134.735 347.626,122.736 353.485 C 117.408 356.086,109.058 355.883,104.234 353.034 C 93.820 346.883,95.352 328.133,106.539 324.809 C 107.453 324.537,108.560 324.161,109.000 323.972 C 110.021 323.535,118.093 323.758,120.200 324.282 M157.600 327.643 C 157.600 331.635,157.589 331.684,156.700 331.466 C 147.130 329.116,144.400 332.339,144.400 345.986 L 144.400 354.349 140.100 354.477 C 137.735 354.547,135.665 354.548,135.500 354.479 C 135.335 354.409,135.200 347.613,135.200 339.376 L 135.200 324.400 139.800 324.400 L 144.400 324.400 144.400 326.600 C 144.400 329.285,144.427 329.287,146.893 326.782 C 148.030 325.628,149.380 324.664,150.048 324.530 C 150.691 324.402,151.314 324.140,151.432 323.948 C 151.550 323.757,152.987 323.600,154.624 323.600 L 157.600 323.600 157.600 327.643 M292.304 324.488 C 297.328 326.839,298.404 330.445,298.394 344.877 C 298.386 355.141,298.822 354.307,293.397 354.443 L 289.000 354.553 288.753 345.177 C 288.618 340.019,288.483 335.221,288.453 334.513 C 288.328 331.488,284.004 329.341,281.074 330.850 C 277.518 332.681,277.105 334.057,276.831 345.000 L 276.600 354.200 272.200 354.409 C 269.780 354.524,267.665 354.558,267.500 354.485 C 267.335 354.412,267.200 347.613,267.200 339.376 L 267.200 324.400 272.000 324.400 L 276.800 324.400 276.800 326.200 C 276.800 328.348,277.194 328.439,279.127 326.742 C 282.695 323.609,288.359 322.640,292.304 324.488 M245.400 329.593 C 241.795 330.399,238.248 335.551,240.854 336.196 C 243.756 336.914,252.997 336.218,253.132 335.271 C 253.600 331.963,249.213 328.741,245.400 329.593 M111.600 330.264 C 104.994 333.013,105.307 346.377,112.030 348.610 C 119.286 351.020,124.143 340.492,119.323 332.800 C 117.945 330.601,113.946 329.288,111.600 330.264 M208.440 330.598 C 202.871 333.111,202.899 345.334,208.480 348.238 C 215.430 351.854,221.055 341.100,216.489 332.928 C 215.174 330.574,211.104 329.396,208.440 330.598 M249.572 330.701 C 251.124 331.492,252.241 332.882,252.625 334.500 L 252.887 335.600 246.681 335.600 L 240.475 335.600 240.693 334.700 C 241.588 330.996,246.135 328.948,249.572 330.701 M117.585 331.589 C 121.249 334.199,121.467 343.543,117.942 346.900 C 113.245 351.373,107.795 347.448,107.806 339.600 C 107.816 331.943,112.590 328.032,117.585 331.589 M215.199 332.305 C 218.717 335.823,218.263 344.916,214.441 347.486 C 207.514 352.144,201.294 340.367,206.722 332.872 C 208.661 330.195,212.811 329.917,215.199 332.305 M251.400 348.800 L 250.200 349.105 251.600 349.125 C 252.370 349.135,253.360 348.989,253.800 348.800 C 254.864 348.343,253.197 348.343,251.400 348.800 " stroke="none" fill="#8dbdd9" fill-rule="evenodd"></path><path id="path3" d="M12.476 9.795 C 11.528 10.296,10.346 11.087,9.850 11.553 C 9.354 12.019,8.768 12.400,8.546 12.400 C 8.036 12.400,6.400 14.262,6.400 14.843 C 6.400 15.083,5.904 15.756,5.298 16.340 C 3.686 17.892,1.600 22.230,1.600 24.033 C 1.600 24.869,1.420 25.664,1.200 25.800 C 0.645 26.143,0.645 378.657,1.200 379.000 C 1.420 379.136,1.600 379.867,1.600 380.624 C 1.600 381.381,1.780 382.000,2.000 382.000 C 2.220 382.000,2.400 382.360,2.400 382.800 C 2.400 383.240,2.580 383.600,2.800 383.600 C 3.020 383.600,3.200 383.960,3.200 384.400 C 3.200 384.840,3.380 385.200,3.600 385.200 C 3.820 385.200,4.000 385.520,4.000 385.912 C 4.000 386.303,4.360 386.883,4.800 387.200 C 5.240 387.517,5.600 387.968,5.600 388.202 C 5.600 388.787,9.710 392.800,10.309 392.800 C 10.575 392.800,11.018 393.160,11.293 393.600 C 11.568 394.040,12.109 394.400,12.496 394.400 C 12.883 394.400,13.200 394.580,13.200 394.800 C 13.200 395.020,13.560 395.200,14.000 395.200 C 14.440 395.200,14.800 395.380,14.800 395.600 C 14.800 395.820,15.520 396.000,16.400 396.000 C 17.280 396.000,18.000 396.165,18.000 396.366 C 18.000 397.217,31.526 397.285,200.400 397.285 C 369.274 397.285,382.800 397.217,382.800 396.366 C 382.800 396.165,383.520 396.000,384.400 396.000 C 385.280 396.000,386.000 395.820,386.000 395.600 C 386.000 395.380,386.360 395.200,386.800 395.200 C 387.240 395.200,387.600 395.020,387.600 394.800 C 387.600 394.580,387.842 394.400,388.138 394.400 C 388.434 394.400,389.002 394.040,389.400 393.600 C 389.798 393.160,390.327 392.800,390.576 392.800 C 391.146 392.800,395.200 388.723,395.200 388.149 C 395.200 387.915,395.560 387.398,396.000 387.000 C 396.440 386.602,396.800 386.034,396.800 385.738 C 396.800 385.442,396.980 385.200,397.200 385.200 C 397.420 385.200,397.600 384.840,397.600 384.400 C 397.600 383.960,397.780 383.600,398.000 383.600 C 398.220 383.600,398.400 383.240,398.400 382.800 C 398.400 382.360,398.580 382.000,398.800 382.000 C 399.020 382.000,399.200 381.280,399.200 380.400 C 399.200 379.520,399.380 378.800,399.600 378.800 C 399.866 378.800,400.000 319.741,400.000 202.424 C 400.000 85.271,399.866 25.964,399.600 25.800 C 399.380 25.664,399.200 24.860,399.200 24.014 C 399.200 22.600,397.805 19.180,397.100 18.867 C 396.935 18.793,396.800 18.461,396.800 18.127 C 396.800 17.794,396.260 17.017,395.600 16.400 C 394.940 15.783,394.400 15.073,394.400 14.821 C 394.400 14.282,392.597 12.400,392.080 12.400 C 391.884 12.400,391.402 12.044,391.008 11.609 C 390.268 10.791,386.566 8.793,385.821 8.809 C 385.590 8.814,385.994 9.111,386.720 9.469 C 388.087 10.143,391.600 13.939,391.600 14.743 C 391.600 14.994,391.780 15.200,392.000 15.200 C 392.220 15.200,392.400 15.560,392.400 16.000 C 392.400 16.440,392.580 16.800,392.800 16.800 C 393.020 16.800,393.200 17.160,393.200 17.600 C 393.200 18.040,393.380 18.400,393.600 18.400 C 393.820 18.400,394.000 18.839,394.000 19.376 C 394.000 19.913,394.180 20.464,394.400 20.600 C 394.955 20.943,394.955 370.257,394.400 370.600 C 394.180 370.736,394.000 371.161,394.000 371.544 C 394.000 372.419,393.101 374.393,392.700 374.397 C 392.535 374.399,392.400 374.608,392.400 374.863 C 392.400 377.848,383.850 384.219,378.220 385.428 C 375.014 386.117,30.705 386.261,24.561 385.575 C 19.045 384.960,13.317 381.957,10.769 378.344 C 10.248 377.605,9.502 376.651,9.111 376.225 C 8.720 375.798,8.396 375.258,8.391 375.025 C 8.386 374.791,8.030 374.150,7.600 373.600 C 7.170 373.050,6.814 372.206,6.809 371.724 C 6.804 371.242,6.620 370.736,6.400 370.600 C 5.845 370.257,5.845 20.943,6.400 20.600 C 6.620 20.464,6.800 19.913,6.800 19.376 C 6.800 18.839,6.980 18.400,7.200 18.400 C 7.420 18.400,7.600 18.040,7.600 17.600 C 7.600 17.160,7.780 16.800,8.000 16.800 C 8.220 16.800,8.400 16.440,8.400 16.000 C 8.400 15.560,8.535 15.200,8.700 15.199 C 8.865 15.199,9.509 14.393,10.131 13.408 C 11.207 11.705,13.507 9.578,14.800 9.090 C 15.333 8.888,15.333 8.864,14.800 8.874 C 14.470 8.880,13.424 9.294,12.476 9.795 " stroke="none" fill="#040404" fill-rule="evenodd"></path><path id="path4" d="M103.400 280.956 C 100.070 282.235,99.200 283.529,99.200 287.200 C 99.200 292.100,101.327 293.593,108.754 293.906 C 114.233 294.137,114.800 294.349,114.800 296.165 C 114.800 298.256,114.392 298.371,106.570 298.490 L 99.400 298.600 99.400 300.800 L 99.400 303.000 107.400 303.092 C 118.393 303.217,121.121 301.898,121.181 296.428 C 121.233 291.640,118.807 289.858,112.000 289.686 C 105.440 289.520,105.600 289.583,105.600 287.192 L 105.600 285.200 113.157 285.200 C 121.470 285.200,121.200 285.286,121.200 282.647 C 121.200 281.939,120.984 281.144,120.720 280.880 C 120.075 280.235,105.106 280.301,103.400 280.956 M127.084 280.954 C 122.947 282.239,121.990 284.339,122.018 292.077 C 122.052 301.636,123.582 303.164,133.144 303.187 L 138.489 303.200 140.400 304.800 C 144.073 307.875,150.039 306.675,146.606 303.551 C 144.968 302.060,144.939 301.881,146.000 299.800 C 148.113 295.656,146.878 283.459,144.200 282.009 C 141.211 280.392,130.936 279.759,127.084 280.954 M148.262 281.131 C 147.454 282.024,147.291 295.220,148.051 298.236 C 149.067 302.270,152.110 303.307,162.395 303.124 C 169.031 303.006,169.396 302.959,169.518 302.200 C 169.812 300.372,169.987 300.301,171.142 301.538 C 174.424 305.051,179.574 301.805,177.397 297.595 C 176.014 294.919,172.062 295.244,170.643 298.149 C 170.021 299.423,169.822 299.583,169.524 299.049 C 169.210 298.488,168.195 298.400,162.060 298.400 C 153.192 298.400,154.000 299.302,154.000 289.400 C 154.000 283.680,153.861 281.221,153.520 280.880 C 152.737 280.097,149.038 280.274,148.262 281.131 M120.000 282.800 L 120.000 284.000 112.781 284.000 L 105.562 284.000 104.581 285.058 C 104.041 285.641,103.600 286.271,103.600 286.458 C 103.600 286.646,102.880 286.800,102.000 286.800 C 100.519 286.800,100.401 286.718,100.409 285.700 C 100.435 282.416,102.710 281.635,112.300 281.616 L 120.000 281.600 120.000 282.800 M142.600 282.639 C 144.839 283.813,144.955 284.800,142.853 284.800 C 141.970 284.800,141.136 284.620,141.000 284.400 C 140.489 283.573,129.524 283.921,128.400 284.800 C 127.354 285.618,124.241 285.913,123.821 285.234 C 123.473 284.671,125.894 282.457,127.326 282.027 C 129.882 281.261,140.805 281.698,142.600 282.639 M152.800 283.000 C 152.800 284.578,149.999 285.218,149.443 283.767 C 148.792 282.072,149.131 281.600,151.000 281.600 C 152.790 281.600,152.800 281.607,152.800 283.000 M140.171 285.829 C 140.908 286.565,141.115 296.958,140.402 297.399 C 140.183 297.534,139.418 297.095,138.702 296.424 C 137.497 295.295,137.182 295.204,134.487 295.202 C 131.201 295.200,130.306 295.909,131.933 297.226 C 133.146 298.208,133.029 298.400,131.214 298.400 C 129.019 298.400,128.800 297.787,128.800 291.655 C 128.800 287.463,128.922 286.336,129.429 285.829 C 130.346 284.912,139.254 284.912,140.171 285.829 " stroke="none" fill="#ecb940" fill-rule="evenodd"></path></g></svg>